Patient4_TMGait_0pt4_03_right_23_GRF.mot
version=1
nRows=71
nColumns=19
inDegrees=no
endheader
time	F1x	F1y	F1z	M1x	M1y	M1z	F2x	F2y	F2z	M2x	M2y	M2z	EC1x	EC1y	EC1z	EC2x	EC2y	EC2z
29.44	-19.1618	757.4642	52.5111	-261.0741	-61.7147	829.0274	21.264	-3.0577	-3.334	-0.089814	0.020031	-9.435	-0.0592	0.0182	-0.0073	-0.0462	0.0165	0.9585
29.4539	-13.4895	757.0579	54.1893	-260.2974	-61.7599	829.6687	14.1276	-1.3885	-2.3123	0.18187	0.18824	-5.5481	-0.0592	0.0182	-0.0073	-0.0462	0.0165	0.9585
29.4677	-8.3185	755.9232	55.5704	-259.3024	-61.547	828.5018	8.0731	0.010737	-1.4397	0.41551	0.31413	-2.3072	-0.0592	0.0182	-0.0073	-0.0462	0.0165	0.9585
29.4816	-3.9125	754.1375	56.605	-258.1437	-61.0976	825.536	3.4505	1.0791	-0.77227	0.60142	0.40209	0.14555	-0.0592	0.0182	-0.0073	-0.0462	0.0165	0.9585
29.4954	-0.26904	751.9238	57.2962	-256.9046	-60.4227	821.1124	0.23533	1.8287	-0.31243	0.74041	0.46331	1.8482	-0.0592	0.0182	-0.0073	-0.0462	0.0165	0.9585
29.5093	2.7599	749.589	57.6856	-255.6862	-59.5355	815.7384	-1.7689	2.2999	-0.038366	0.83506	0.50965	2.9025	-0.0592	0.0182	-0.0073	-0.0462	0.0165	0.9585
29.5231	5.3538	747.4982	57.8158	-254.6044	-58.4429	810.0088	-2.8609	2.5588	0.091595	0.89062	0.55422	3.4666	-0.0592	0.0182	-0.0073	-0.0462	0.0165	0.9585
29.537	7.6989	746.0201	57.7379	-253.7744	-57.1598	804.5102	-3.3206	2.6233	0.11583	0.90038	0.60697	3.6326	-0.0592	0.0182	-0.0073	-0.0462	0.0165	0.9585
29.5509	9.9468	745.5023	57.5038	-253.2983	-55.7094	799.7845	-3.41	2.5033	0.066205	0.85439	0.68319	3.4794	-0.0592	0.0182	-0.0073	-0.0462	0.0165	0.9585
29.5647	12.2167	746.2156	57.1613	-253.2474	-54.1225	796.2534	-3.3229	2.188	-0.03346	0.73677	0.79727	3.0443	-0.0592	0.0182	-0.0073	-0.0462	0.0165	0.9585
29.5786	14.548	748.2858	56.7665	-253.6384	-52.4603	794.1642	-3.1805	1.6249	-0.16295	0.52194	0.94891	2.2975	-0.0592	0.0182	-0.0073	-0.0462	0.0165	0.9585
29.5924	16.9346	751.641	56.3799	-254.4187	-50.8062	793.5254	-3.0749	0.75815	-0.30748	0.18435	1.1349	1.208	-0.0592	0.0182	-0.0073	-0.0462	0.0165	0.9585
29.6063	19.3466	755.9974	56.0686	-255.4669	-49.2533	794.0974	-3.0013	-0.45515	-0.44779	-0.29412	1.3256	-0.26348	-0.0592	0.0182	-0.0073	-0.0462	0.0165	0.9585
29.6201	21.7235	760.8647	55.8992	-256.5949	-47.8956	795.419	-2.9214	-1.9985	-0.56512	-0.9093	1.4786	-2.0951	-0.0592	0.0182	-0.0073	-0.0462	0.0165	0.9585
29.634	24.0111	765.5518	55.9296	-257.5526	-46.8109	796.804	-2.7555	-3.7725	-0.62893	-1.6207	1.5193	-4.1785	-0.0592	0.0182	-0.0073	-0.0462	0.0165	0.9585
29.6479	26.1348	769.2667	56.2012	-258.061	-46.0607	797.4708	-2.3539	-5.5361	-0.60099	-2.3301	1.343	-6.2392	-0.0592	0.0182	-0.0073	-0.0462	0.0165	0.9585
29.6617	28.0248	771.294	56.7451	-257.8751	-45.7001	796.7101	-1.54	-6.8205	-0.42214	-2.8476	0.8117	-7.724	-0.0592	0.0182	-0.0073	-0.0462	0.0165	0.9585
29.6756	29.6315	771.1304	57.5718	-256.8349	-45.7595	794.0126	-0.098339	-6.9053	-0.025026	-2.8762	-0.22916	-7.7998	-0.0592	0.0182	-0.0073	-0.0462	0.0165	0.9585
29.6894	30.9425	768.5923	58.6629	-254.8984	-46.2259	789.1852	2.1614	-4.7413	0.67376	-1.9867	-1.9401	-5.2457	-0.0592	0.0182	-0.0073	-0.0462	0.0165	0.9585
29.7033	32.0057	763.7468	59.9498	-252.118	-47.0141	782.2599	5.3689	1.0394	1.744	0.38038	-4.442	1.5401	-0.0592	0.0182	-0.0073	-0.0462	0.0165	0.9585
29.7171	32.9037	756.7722	61.3296	-248.5833	-47.9917	773.3732	9.5179	12.0206	3.2233	4.874	-7.7608	14.4095	-0.0592	0.0182	-0.0073	-0.0462	0.0165	0.9585
29.731	33.7417	747.7759	62.6512	-244.3593	-48.9727	762.5868	14.3112	29.7936	5.0783	12.1418	-11.7232	35.2343	-0.0592	0.0182	-0.0073	-0.0462	0.0165	0.9585
29.7449	34.5759	736.6161	63.7272	-239.431	-49.755	749.7352	19.0455	55.5199	7.1487	22.6558	-15.8445	65.3728	-0.0592	0.0182	-0.0073	-0.0462	0.0165	0.9585
29.7587	35.3807	722.8001	64.3111	-233.6718	-50.1042	734.3347	22.4185	89.2989	9.084	36.4483	-19.1828	104.9351	-0.0592	0.0182	-0.0073	-0.0462	0.0165	0.9585
29.7726	36.0831	705.4884	64.1582	-226.8492	-49.8054	715.5749	22.5904	129.4238	10.2462	52.8031	-20.2745	151.9383	-0.0592	0.0182	-0.0073	-0.0462	0.0165	0.9585
29.7864	36.5792	683.7715	63.0392	-218.7116	-48.6707	692.5911	18.62	172.5788	9.8665	70.3009	-17.8733	202.6131	-0.0592	0.0182	-0.0073	-0.0462	0.0165	0.9585
29.8003	36.8037	657.0477	60.8181	-209.1083	-46.5862	664.7929	11.489	214.2453	7.511	87.053	-11.9548	251.7128	-0.0592	0.0182	-0.0073	-0.0462	0.0165	0.9585
29.8141	36.7857	625.2253	57.5489	-198.0473	-43.5836	632.0564	3.3711	250.6739	3.4259	101.534	-3.7113	294.6779	-0.0592	0.0182	-0.0073	-0.0462	0.0165	0.9585
29.828	36.5855	588.6911	53.4261	-185.6783	-39.8158	594.7289	-4.3597	280.847	-1.7607	113.3577	5.5432	330.2099	-0.0592	0.0182	-0.0073	-0.0462	0.0165	0.9585
29.8419	36.2651	548.2003	48.7243	-172.2519	-35.5128	553.5247	-11.1702	306.5344	-7.0793	123.2909	14.5009	360.3703	-0.0592	0.0182	-0.0073	-0.0462	0.0165	0.9585
29.8557	35.8187	504.6879	43.6883	-158.061	-30.901	509.3624	-16.972	330.6352	-11.9227	132.5531	22.4364	388.5915	-0.0592	0.0182	-0.0073	-0.0462	0.0165	0.9585
29.8696	35.1577	459.1091	38.4786	-143.3937	-26.1551	463.1982	-21.8258	355.9066	-15.9186	142.2858	28.9833	418.0861	-0.0592	0.0182	-0.0073	-0.0462	0.0165	0.9585
29.8834	34.1201	412.3244	33.218	-128.4972	-21.4453	415.9019	-25.7618	384.39	-19.2347	153.3096	34.3561	451.1709	-0.0592	0.0182	-0.0073	-0.0462	0.0165	0.9585
29.8973	32.4877	365.1103	28.0561	-113.5798	-16.9837	368.2742	-28.8638	417.3104	-22.2101	166.0908	38.9924	489.2233	-0.0592	0.0182	-0.0073	-0.0462	0.0165	0.9585
29.9111	30.0941	318.2008	23.2064	-98.8317	-13.0316	321.0538	-31.2608	454.8546	-25.2819	180.6692	43.4428	532.4498	-0.0592	0.0182	-0.0073	-0.0462	0.0165	0.9585
29.925	26.8293	272.4401	18.8617	-84.4812	-9.8186	275.0813	-33.1554	496.1388	-28.8061	196.66	48.1861	579.8379	-0.0592	0.0182	-0.0073	-0.0462	0.0165	0.9585
29.9389	22.7248	228.8476	15.1628	-70.8215	-7.4875	231.3573	-34.8257	539.6011	-32.8774	213.4254	53.4342	629.6037	-0.0592	0.0182	-0.0073	-0.0462	0.0165	0.9585
29.9527	18.0041	188.5604	12.1423	-58.1988	-6.0177	190.9766	-36.5099	583.4912	-37.3347	230.2758	59.0954	679.7297	-0.0592	0.0182	-0.0073	-0.0462	0.0165	0.9585
29.9666	13.0022	152.6058	9.7758	-46.9348	-5.2886	154.9354	-38.3527	626.0869	-41.8537	246.5504	64.8598	728.221	-0.0592	0.0182	-0.0073	-0.0462	0.0165	0.9585
29.9804	8.1175	121.5706	7.9865	-37.2225	-5.1019	123.7703	-40.3634	665.7329	-46.1507	261.6188	70.4015	773.1584	-0.0592	0.0182	-0.0073	-0.0462	0.0165	0.9585
29.9943	3.6544	95.4725	6.6601	-29.0762	-5.2412	97.4757	-42.4373	700.9651	-49.955	274.9286	75.377	812.8242	-0.0592	0.0182	-0.0073	-0.0462	0.0165	0.9585
30.0081	-0.18795	73.8421	5.6805	-22.3528	-5.5211	75.5801	-44.4538	730.6834	-53.1282	286.0609	79.5835	845.932	-0.0592	0.0182	-0.0073	-0.0462	0.0165	0.9585
30.022	-3.2803	55.9836	4.9194	-16.8352	-5.773	57.4087	-46.2739	754.2262	-55.6175	294.7625	82.9182	871.71	-0.0592	0.0182	-0.0073	-0.0462	0.0165	0.9585
30.0359	-5.5218	41.203	4.2644	-12.303	-5.8536	42.3169	-47.7622	771.3787	-57.5071	300.9495	85.4229	889.9096	-0.0592	0.0182	-0.0073	-0.0462	0.0165	0.9585
30.0497	-6.766	28.9448	3.5989	-8.5774	-5.606	29.7678	-48.8073	782.338	-58.9027	304.6996	87.1719	900.7664	-0.0592	0.0182	-0.0073	-0.0462	0.0165	0.9585
30.0636	-6.9265	18.8788	2.8676	-5.5447	-4.9521	19.4456	-49.322	787.6037	-59.9013	306.2133	88.2402	904.877	-0.0592	0.0182	-0.0073	-0.0462	0.0165	0.9585
30.0774	-6.1035	10.9054	2.0687	-3.1628	-3.9285	11.2489	-49.2773	787.8791	-60.5472	305.7736	88.6706	903.0779	-0.0592	0.0182	-0.0073	-0.0462	0.0165	0.9585
30.0913	-4.7534	5.0612	1.3178	-1.4307	-2.7895	5.2185	-48.6974	783.9475	-60.8539	303.6983	88.498	896.3006	-0.0592	0.0182	-0.0073	-0.0462	0.0165	0.9585
30.1051	-3.3118	1.184	0.70949	-0.29349	-1.7599	1.2167	-47.664	776.6499	-60.8351	300.3275	87.7814	885.543	-0.0592	0.0182	-0.0073	-0.0462	0.0165	0.9585
30.119	-2.0148	-1.0828	0.26924	0.35866	-0.93824	-1.1168	-46.2925	766.9375	-60.5181	296.0439	86.6007	871.9107	-0.0592	0.0182	-0.0073	-0.0462	0.0165	0.9585
30.1329	-0.96641	-2.1589	-0.008996	0.65286	-0.35314	-2.2259	-44.6999	755.913	-59.9727	291.2884	85.0776	856.6532	-0.0592	0.0182	-0.0073	-0.0462	0.0165	0.9585
30.1467	-0.19996	-2.4269	-0.16095	0.70606	0.018726	-2.5069	-42.9897	744.7592	-59.2608	286.5362	83.3235	841.0727	-0.0592	0.0182	-0.0073	-0.0462	0.0165	0.9585
30.1606	0.31407	-2.2126	-0.2129	0.61784	0.21513	-2.2989	-41.2375	734.6208	-58.4245	282.2524	81.416	826.3925	-0.0592	0.0182	-0.0073	-0.0462	0.0165	0.9585
30.1744	0.61029	-1.7538	-0.20385	0.4618	0.28783	-1.8297	-39.4695	726.5442	-57.4453	278.865	79.3497	813.7004	-0.0592	0.0182	-0.0073	-0.0462	0.0165	0.9585
30.1883	0.73677	-1.2417	-0.15825	0.29454	0.27731	-1.2877	-37.644	721.3906	-56.3037	276.726	77.0894	803.8561	-0.0592	0.0182	-0.0073	-0.0462	0.0165	0.9585
30.2021	0.73823	-0.80346	-0.096927	0.15404	0.2161	-0.81239	-35.6628	719.7217	-54.9773	276.0661	74.5708	797.3611	-0.0592	0.0182	-0.0073	-0.0462	0.0165	0.9585
30.216	0.6454	-0.51465	-0.027993	0.065006	0.12024	-0.48729	-33.3845	721.737	-53.4862	276.9672	71.7531	794.3151	-0.0592	0.0182	-0.0073	-0.0462	0.0165	0.9585
30.2299	0.49712	-0.44198	0.046596	0.049999	3.0414e-07	-0.39829	-30.6259	727.2799	-51.8644	279.3632	68.5979	794.441	-0.0592	0.0182	-0.0073	-0.0462	0.0165	0.9585
30.2437	0.30883	-0.63518	0.12544	0.12785	-0.14304	-0.60541	-27.2062	735.8395	-50.1718	283.0396	65.0912	797.1245	-0.0592	0.0182	-0.0073	-0.0462	0.0165	0.9585
30.2576	0.096479	-1.1358	0.21182	0.31298	-0.30781	-1.1668	-22.9971	746.5501	-48.4731	287.6354	61.2432	801.4423	-0.0592	0.0182	-0.0073	-0.0462	0.0165	0.9585
30.2714	-0.11529	-1.9697	0.30436	0.6139	-0.48368	-2.1135	-18.004	758.2741	-46.8496	292.6702	57.1351	806.2854	-0.0592	0.0182	-0.0073	-0.0462	0.0165	0.9585
30.2853	-0.30067	-3.1384	0.38967	1.0286	-0.6419	-3.4306	-12.4022	769.6981	-45.4208	297.5807	52.96	810.4674	-0.0592	0.0182	-0.0073	-0.0462	0.0165	0.9585
30.2991	-0.40219	-4.5778	0.44807	1.5344	-0.73766	-5.0496	-6.5439	779.4731	-44.3281	301.782	49.0089	812.8641	-0.0592	0.0182	-0.0073	-0.0462	0.0165	0.9585
30.313	-0.3549	-6.1161	0.44504	2.0726	-0.70813	-6.7781	-0.89206	786.4094	-43.7125	304.7531	45.6173	812.585	-0.0592	0.0182	-0.0073	-0.0462	0.0165	0.9585
30.3269	-0.059288	-7.4455	0.33228	2.5337	-0.46669	-8.2669	4.122	789.7077	-43.6457	306.1397	43.0408	809.1325	-0.0592	0.0182	-0.0073	-0.0462	0.0165	0.9585
30.3407	0.61451	-8.0408	0.044065	2.7327	0.10194	-8.9249	8.2082	789.1018	-44.1149	305.8153	41.3927	802.4865	-0.0592	0.0182	-0.0073	-0.0462	0.0165	0.9585
30.3546	1.7987	-7.1091	-0.4901	2.3929	1.1273	-7.8489	11.295	784.827	-45.0134	303.8734	40.6029	793.0138	-0.0592	0.0182	-0.0073	-0.0462	0.0165	0.9585
30.3684	3.6267	-3.5865	-1.3518	1.1428	2.7466	-3.8252	13.4994	777.5105	-46.2057	300.5782	40.4913	781.3668	-0.0592	0.0182	-0.0073	-0.0462	0.0165	0.9585
30.3823	6.1639	3.8256	-2.6051	-1.4729	5.0553	4.6489	15.0345	767.9787	-47.5514	296.2788	40.835	768.3211	-0.0592	0.0182	-0.0073	-0.0462	0.0165	0.9585
30.3961	9.3577	16.5368	-4.2633	-5.9486	8.0439	19.1952	16.1081	756.971	-48.9298	291.2952	41.439	754.5257	-0.0592	0.0182	-0.0073	-0.0462	0.0165	0.9585
30.41	12.931	35.7824	-6.2414	-12.7152	11.5114	41.2324	16.8356	744.8808	-50.214	285.8197	42.1312	740.2823	-0.0592	0.0182	-0.0073	-0.0462	0.0165	0.9585
